<svg width="44" height="44" viewBox="0 0 44 44" fill="none" xmlns="http://www.w3.org/2000/svg">
<path d="M42.7548 32.4331H10.5816C8.80476 32.4331 7.36432 31.0086 7.36432 29.2515C7.36432 27.4943 8.80476 26.0699 10.5816 26.0699H34.0978C36.8135 26.0787 39.1864 24.2576 39.8517 21.6539L43.7938 6.17876C43.9397 5.6125 43.5937 5.03641 43.021 4.89206C42.9339 4.87019 42.8445 4.85918 42.7548 4.85931H10.3476L10.2905 4.63353C9.69575 2.27129 7.54917 0.614343 5.08749 0.617191H2.00213C1.40988 0.617191 0.929688 1.09205 0.929688 1.67772C0.929688 2.26339 1.40988 2.73825 2.00213 2.73825H5.08749C6.56418 2.73618 7.85198 3.73017 8.20845 5.14723L12.9611 23.9488H10.5816C7.62013 23.9488 5.21945 26.3229 5.21945 29.2515C5.21945 32.1801 7.62013 34.5541 10.5816 34.5541H12.7532C12.0442 35.467 11.658 36.5847 11.6541 37.7357C11.6541 40.6644 14.0548 43.0384 17.0163 43.0384C19.9778 43.0384 22.3785 40.6644 22.3785 37.7357C22.3746 36.5847 21.9884 35.467 21.2793 34.5541H29.9123C29.2032 35.467 28.817 36.5847 28.8131 37.7357C28.8131 40.6644 31.2138 43.0384 34.1753 43.0384C37.1368 43.0384 39.5375 40.6644 39.5375 37.7357C39.5336 36.5847 39.1474 35.467 38.4384 34.5541H42.7548C43.3471 34.5541 43.8273 34.0793 43.8273 33.4936C43.8273 32.9079 43.3471 32.4331 42.7548 32.4331ZM10.8854 6.98037H41.3787L37.7718 21.136C37.3456 22.7967 35.8304 23.9569 34.0978 23.9488H15.2065L10.8854 6.98037ZM17.0163 40.9173C15.2394 40.9173 13.799 39.4929 13.799 37.7357C13.799 35.9786 15.2394 34.5541 17.0163 34.5541C18.7932 34.5541 20.2336 35.9786 20.2336 37.7357C20.2316 39.4921 18.7924 40.9154 17.0163 40.9173ZM34.1753 40.9173C32.3984 40.9173 30.958 39.4929 30.958 37.7357C30.958 35.9786 32.3984 34.5541 34.1753 34.5541C35.9522 34.5541 37.3926 35.9786 37.3926 37.7357C37.3907 39.4921 35.9514 40.9154 34.1753 40.9173Z" fill="black"/>
</svg>
