<svg width="23" height="24" viewBox="0 0 23 24" fill="none" xmlns="http://www.w3.org/2000/svg">
<path d="M22 22.1699L15 15.1699M1 9.33659C1 10.409 1.21124 11.471 1.62165 12.4618C2.03206 13.4527 2.63362 14.3529 3.39196 15.1113C4.15031 15.8696 5.05059 16.4712 6.04142 16.8816C7.03224 17.292 8.0942 17.5033 9.16667 17.5033C10.2391 17.5033 11.3011 17.292 12.2919 16.8816C13.2827 16.4712 14.183 15.8696 14.9414 15.1113C15.6997 14.3529 16.3013 13.4527 16.7117 12.4618C17.1221 11.471 17.3333 10.409 17.3333 9.33659C17.3333 8.26413 17.1221 7.20217 16.7117 6.21134C16.3013 5.22052 15.6997 4.32023 14.9414 3.56188C14.183 2.80354 13.2827 2.20199 12.2919 1.79157C11.3011 1.38116 10.2391 1.16992 9.16667 1.16992C8.0942 1.16992 7.03224 1.38116 6.04142 1.79157C5.05059 2.20199 4.15031 2.80354 3.39196 3.56188C2.63362 4.32023 2.03206 5.22052 1.62165 6.21134C1.21124 7.20217 1 8.26413 1 9.33659Z" stroke="#231F20" stroke-width="2" stroke-linecap="round" stroke-linejoin="round"/>
</svg>
