<svg width="11" height="4" viewBox="0 0 11 4" fill="none" xmlns="http://www.w3.org/2000/svg">
<mask id="path-1-inside-1_795_4558" fill="white">
<path d="M4.85885 3.93333H3.97443L4.52718 0.0690492H5.41169L4.85885 3.93333ZM3.2304 0.0690492L2.38724 2.72693L2.28747 2.15459L2.28756 2.15479L1.98996 0.416983C1.98996 0.416983 1.95398 0.0690492 1.57043 0.0690492H0.176513L0.160156 0.134481C0.160156 0.134481 0.586418 0.235367 1.08528 0.576168L1.85366 3.93343H2.77516L4.18225 0.0690492H3.2304ZM10.1868 3.93333H10.9989L10.2908 0.0689459H9.5799C9.25159 0.0689459 9.17163 0.356927 9.17163 0.356927L7.85259 3.93333H8.77453L8.9589 3.35933H10.0832L10.1868 3.93333ZM9.21361 2.5664L9.6783 1.12029L9.93973 2.5664H9.21361ZM7.92174 0.99832L8.04795 0.168488C8.04795 0.168488 7.65849 0 7.25249 0C6.8136 0 5.77135 0.218208 5.77135 1.27927C5.77135 2.27759 6.99461 2.29 6.99461 2.81438C6.99461 3.33876 5.89738 3.2448 5.53527 2.91413L5.40378 3.78179C5.40378 3.78179 5.7987 4 6.40206 4C7.0056 4 7.9161 3.64452 7.9161 2.677C7.9161 1.67227 6.68184 1.57873 6.68184 1.1419C6.68193 0.704964 7.54327 0.761092 7.92174 0.99832Z"/>
</mask>
<path d="M4.85885 3.93333H3.97443L4.52718 0.0690492H5.41169L4.85885 3.93333ZM3.2304 0.0690492L2.38724 2.72693L2.28747 2.15459L2.28756 2.15479L1.98996 0.416983C1.98996 0.416983 1.95398 0.0690492 1.57043 0.0690492H0.176513L0.160156 0.134481C0.160156 0.134481 0.586418 0.235367 1.08528 0.576168L1.85366 3.93343H2.77516L4.18225 0.0690492H3.2304ZM10.1868 3.93333H10.9989L10.2908 0.0689459H9.5799C9.25159 0.0689459 9.17163 0.356927 9.17163 0.356927L7.85259 3.93333H8.77453L8.9589 3.35933H10.0832L10.1868 3.93333ZM9.21361 2.5664L9.6783 1.12029L9.93973 2.5664H9.21361ZM7.92174 0.99832L8.04795 0.168488C8.04795 0.168488 7.65849 0 7.25249 0C6.8136 0 5.77135 0.218208 5.77135 1.27927C5.77135 2.27759 6.99461 2.29 6.99461 2.81438C6.99461 3.33876 5.89738 3.2448 5.53527 2.91413L5.40378 3.78179C5.40378 3.78179 5.7987 4 6.40206 4C7.0056 4 7.9161 3.64452 7.9161 2.677C7.9161 1.67227 6.68184 1.57873 6.68184 1.1419C6.68193 0.704964 7.54327 0.761092 7.92174 0.99832Z" fill="#2566AF"/>
<path d="M4.85885 3.93333V21.5723H20.1539L22.32 6.4314L4.85885 3.93333ZM3.97443 3.93333L-13.4868 1.43566L-16.3671 21.5723H3.97443V3.93333ZM4.52718 0.0690492V-17.5699H-10.7682L-12.934 -2.42862L4.52718 0.0690492ZM5.41169 0.0690492L22.8728 2.56712L25.7537 -17.5699H5.41169V0.0690492ZM3.2304 0.0690492V-17.5699H-9.67918L-13.5828 -5.26463L3.2304 0.0690492ZM2.38724 2.72693L-14.9896 5.75612L19.2004 8.06061L2.38724 2.72693ZM2.28747 2.15459L18.4354 -4.94306L-15.0894 5.18378L2.28747 2.15459ZM2.28756 2.15479L-13.8604 9.25244L19.6734 -0.822463L2.28756 2.15479ZM1.98996 0.416983L-15.5554 2.23154L-15.495 2.81555L-15.3959 3.39424L1.98996 0.416983ZM0.176513 0.0690492V-17.5699H-13.5959L-16.9359 -4.20863L0.176513 0.0690492ZM0.160156 0.134481L-16.9522 -4.1432L-21.2839 13.1854L-3.90234 17.2992L0.160156 0.134481ZM1.08528 0.576168L18.2796 -3.35911L16.7386 -10.0922L11.0352 -13.9885L1.08528 0.576168ZM1.85366 3.93343L-15.3407 7.86871L-12.2043 21.5724H1.85366V3.93343ZM2.77516 3.93343V21.5724H15.1243L19.3495 9.96846L2.77516 3.93343ZM4.18225 0.0690492L20.7566 6.10408L29.3767 -17.5699H4.18225V0.0690492ZM10.1868 3.93333L-7.17171 7.06602L-4.55377 21.5723H10.1868V3.93333ZM10.9989 3.93333V21.5723H32.1633L28.349 0.754392L10.9989 3.93333ZM10.2908 0.0689459L27.6409 -3.10999L24.9915 -17.57H10.2908V0.0689459ZM9.17163 0.356927L25.7209 6.46058L25.9728 5.77759L26.1675 5.07617L9.17163 0.356927ZM7.85259 3.93333L-8.69665 -2.17032L-17.4533 21.5723H7.85259V3.93333ZM8.77453 3.93333V21.5723H21.6353L25.5684 9.3276L8.77453 3.93333ZM8.9589 3.35933V-14.2796H-3.90191L-7.83495 -2.03494L8.9589 3.35933ZM10.0832 3.35933L27.4417 0.226639L24.8238 -14.2796H10.0832V3.35933ZM9.21361 2.5664L-7.57956 -2.82999L-14.9818 20.2053H9.21361V2.5664ZM9.6783 1.12029L27.0359 -2.01761L-7.11486 -4.2761L9.6783 1.12029ZM9.93973 2.5664V20.2053H31.0533L27.2973 -0.571499L9.93973 2.5664ZM7.92174 0.99832L-1.44638 15.9439L21.3199 30.2141L25.3601 3.65066L7.92174 0.99832ZM8.04795 0.168488L25.4863 2.82083L27.5309 -10.6216L15.0516 -16.0204L8.04795 0.168488ZM5.53527 2.91413L17.4296 -10.1111L-6.95655 -32.3801L-11.9045 0.271299L5.53527 2.91413ZM5.40378 3.78179L-12.036 1.13896L-13.8761 13.2812L-3.12693 19.2207L5.40378 3.78179ZM6.68184 1.1419L-10.9571 1.13823V1.1419H6.68184ZM4.85885 -13.7056H3.97443V21.5723H4.85885V-13.7056ZM21.4356 6.43099L21.9884 2.56671L-12.934 -2.42862L-13.4868 1.43566L21.4356 6.43099ZM4.52718 17.708H5.41169V-17.5699H4.52718V17.708ZM-12.0494 -2.42902L-12.6023 1.43526L22.32 6.4314L22.8728 2.56712L-12.0494 -2.42902ZM-13.5828 -5.26463L-14.426 -2.60675L19.2004 8.06061L20.0436 5.40273L-13.5828 -5.26463ZM19.7641 -0.302265L19.6643 -0.87461L-15.0894 5.18378L-14.9896 5.75612L19.7641 -0.302265ZM-13.8604 9.25223L-13.8604 9.25244L18.4355 -4.94286L18.4354 -4.94306L-13.8604 9.25223ZM19.6734 -0.822463L19.3758 -2.56027L-15.3959 3.39424L-15.0983 5.13205L19.6734 -0.822463ZM1.98996 0.416983C19.5353 -1.39758 19.5343 -1.40694 19.5334 -1.4163C19.533 -1.41943 19.532 -1.42883 19.5314 -1.4351C19.5301 -1.44766 19.5287 -1.46027 19.5273 -1.47293C19.5246 -1.49825 19.5218 -1.52377 19.5189 -1.5495C19.5132 -1.60095 19.5071 -1.65324 19.5006 -1.70635C19.4878 -1.81252 19.4735 -1.92227 19.4576 -2.03538C19.426 -2.26114 19.3877 -2.50305 19.341 -2.75909C19.2487 -3.26616 19.1187 -3.8561 18.9321 -4.50567C18.5753 -5.74836 17.9221 -7.5235 16.6821 -9.41776C13.6925 -13.9847 8.28433 -17.5699 1.57043 -17.5699V17.708C-1.1081 17.708 -4.08854 17.069 -6.9273 15.4533C-9.70872 13.8702 -11.6082 11.7764 -12.8341 9.90379C-14.0171 8.09651 -14.6373 6.40836 -14.9755 5.23091C-15.1526 4.61396 -15.2768 4.05119 -15.3657 3.56316C-15.4106 3.31663 -15.4478 3.0822 -15.4787 2.86154C-15.4942 2.75096 -15.5082 2.64317 -15.5209 2.53832C-15.5273 2.48586 -15.5333 2.43407 -15.5391 2.38296C-15.5419 2.3574 -15.5447 2.33201 -15.5474 2.30677C-15.5488 2.29415 -15.5501 2.28158 -15.5515 2.26904C-15.5521 2.26278 -15.5531 2.25339 -15.5534 2.25026C-15.5544 2.2409 -15.5554 2.23154 1.98996 0.416983ZM1.57043 -17.5699H0.176513V17.708H1.57043V-17.5699ZM-16.9359 -4.20863L-16.9522 -4.1432L17.2725 4.41216L17.2889 4.34673L-16.9359 -4.20863ZM0.160156 0.134481C-3.90234 17.2992 -3.90648 17.2982 -3.91063 17.2972C-3.91201 17.2969 -3.91616 17.2959 -3.91893 17.2953C-3.92446 17.294 -3.92999 17.2926 -3.93552 17.2913C-3.94658 17.2887 -3.95765 17.286 -3.96872 17.2834C-3.99086 17.278 -4.01301 17.2726 -4.03517 17.2672C-4.07949 17.2564 -4.12389 17.2453 -4.16834 17.234C-4.25723 17.2115 -4.34653 17.1881 -4.4362 17.1638C-4.61533 17.1152 -4.79717 17.0627 -4.98139 17.0057C-5.34789 16.8922 -5.73464 16.7577 -6.13636 16.5964C-6.92212 16.2809 -7.86768 15.8219 -8.86465 15.1409L11.0352 -13.9885C9.53938 -15.0104 8.13126 -15.6902 7.00765 -16.1414C6.43701 -16.3705 5.91251 -16.5515 5.4505 -16.6945C5.21852 -16.7663 4.99948 -16.8294 4.79509 -16.8848C4.69279 -16.9126 4.59385 -16.9385 4.49847 -16.9626C4.45077 -16.9747 4.40393 -16.9864 4.35796 -16.9977C4.33497 -17.0033 4.3122 -17.0088 4.28965 -17.0142C4.27838 -17.017 4.26716 -17.0197 4.25599 -17.0223C4.2504 -17.0237 4.24483 -17.025 4.23928 -17.0263C4.2365 -17.027 4.23234 -17.0279 4.23095 -17.0283C4.2268 -17.0293 4.22265 -17.0302 0.160156 0.134481ZM-16.1091 4.51145L-15.3407 7.86871L19.048 -0.00185223L18.2796 -3.35911L-16.1091 4.51145ZM1.85366 21.5724H2.77516V-13.7055H1.85366V21.5724ZM19.3495 9.96846L20.7566 6.10408L-12.3921 -5.96598L-13.7992 -2.1016L19.3495 9.96846ZM4.18225 -17.5699H3.2304V17.708H4.18225V-17.5699ZM10.1868 21.5723H10.9989V-13.7056H10.1868V21.5723ZM28.349 0.754392L27.6409 -3.10999L-7.05926 3.24788L-6.35121 7.11226L28.349 0.754392ZM10.2908 -17.57H9.5799V17.7079H10.2908V-17.57ZM9.5799 -17.57C3.42502 -17.57 -1.35005 -14.5578 -4.20252 -11.1928C-5.46919 -9.6985 -6.27854 -8.25133 -6.78867 -7.16053C-7.05192 -6.59765 -7.26022 -6.07657 -7.4253 -5.61686C-7.50845 -5.38529 -7.58238 -5.16446 -7.64814 -4.95612C-7.68108 -4.85178 -7.71213 -4.75007 -7.7414 -4.65119C-7.75605 -4.60173 -7.77026 -4.55292 -7.78406 -4.50479C-7.79096 -4.48072 -7.79776 -4.45681 -7.80446 -4.43306C-7.80781 -4.42119 -7.81114 -4.40936 -7.81444 -4.39757C-7.81609 -4.39168 -7.81855 -4.38285 -7.81937 -4.37991C-7.82182 -4.37111 -7.82427 -4.36231 9.17163 0.356927C26.1675 5.07617 26.1651 5.08496 26.1626 5.09376C26.1618 5.09669 26.1593 5.10551 26.1577 5.1114C26.1544 5.12317 26.1511 5.13498 26.1477 5.14681C26.1411 5.17049 26.1343 5.19429 26.1274 5.21822C26.1137 5.26608 26.0996 5.31448 26.0851 5.36339C26.0562 5.46118 26.0256 5.56127 25.9934 5.6635C25.9289 5.86763 25.857 6.08227 25.7767 6.30597C25.6173 6.74992 25.4178 7.24851 25.1672 7.78439C24.6823 8.82119 23.9134 10.1964 22.7078 11.6186C19.9774 14.8397 15.4065 17.7079 9.5799 17.7079V-17.57ZM-7.37761 -5.74672L-8.69665 -2.17032L24.4018 10.037L25.7209 6.46058L-7.37761 -5.74672ZM7.85259 21.5723H8.77453V-13.7056H7.85259V21.5723ZM25.5684 9.3276L25.7528 8.7536L-7.83495 -2.03494L-8.01932 -1.46094L25.5684 9.3276ZM8.9589 20.9983H10.0832V-14.2796H8.9589V20.9983ZM-7.2753 6.49202L-7.17171 7.06602L27.5453 0.800637L27.4417 0.226639L-7.2753 6.49202ZM26.0068 7.9628L26.4715 6.51669L-7.11486 -4.2761L-7.57956 -2.82999L26.0068 7.9628ZM-7.67926 4.25819L-7.41784 5.7043L27.2973 -0.571499L27.0359 -2.01761L-7.67926 4.25819ZM9.93973 -15.0725H9.21361V20.2053H9.93973V-15.0725ZM25.3601 3.65066L25.4863 2.82083L-9.39042 -2.48385L-9.51663 -1.65402L25.3601 3.65066ZM8.04795 0.168488C15.0516 -16.0204 15.0486 -16.0217 15.0456 -16.023C15.0446 -16.0235 15.0416 -16.0248 15.0395 -16.0256C15.0355 -16.0274 15.0315 -16.0291 15.0274 -16.0309C15.0193 -16.0344 15.0111 -16.0379 15.0028 -16.0414C14.9863 -16.0485 14.9695 -16.0557 14.9525 -16.0629C14.9185 -16.0774 14.8835 -16.0922 14.8474 -16.1072C14.7754 -16.1374 14.699 -16.1687 14.6186 -16.2011C14.4581 -16.2657 14.2783 -16.3356 14.081 -16.4083C13.6931 -16.5513 13.202 -16.7185 12.6274 -16.8819C11.631 -17.1653 9.69729 -17.6389 7.25249 -17.6389V17.6389C5.21369 17.6389 3.67769 17.2495 2.97749 17.0504C2.55105 16.9291 2.18265 16.804 1.88055 16.6927C1.72603 16.6357 1.57983 16.579 1.44229 16.5236C1.37324 16.4958 1.30565 16.4681 1.23952 16.4404C1.20643 16.4266 1.17362 16.4128 1.14111 16.3989C1.12485 16.392 1.10866 16.3851 1.09253 16.3782C1.08446 16.3747 1.07641 16.3712 1.06837 16.3678C1.06435 16.3661 1.06034 16.3643 1.05633 16.3626C1.05432 16.3617 1.05132 16.3604 1.05031 16.36C1.04731 16.3587 1.04431 16.3574 8.04795 0.168488ZM7.25249 -17.6389C4.89847 -17.6389 1.15452 -17.1877 -2.6545 -14.9273C-7.49189 -12.0566 -11.8676 -6.3884 -11.8676 1.27927H23.4103C23.4103 4.04331 22.6886 7.07706 20.9572 9.88637C19.2859 12.5981 17.1431 14.3462 15.3492 15.4107C12.171 17.2968 9.16762 17.6389 7.25249 17.6389V-17.6389ZM-11.8676 1.27927C-11.8676 3.24497 -11.5596 5.30899 -10.8497 7.36554C-10.1407 9.4196 -9.13617 11.1619 -8.04146 12.5914C-6.97215 13.9876 -5.87621 15.0089 -5.01658 15.7128C-4.1726 16.4039 -3.43524 16.8856 -3.04624 17.1316C-2.84609 17.2582 -2.67939 17.3589 -2.61242 17.3993C-2.49277 17.4714 -2.57171 17.4238 -2.6022 17.4051C-2.66221 17.3684 -2.84322 17.2571 -3.07844 17.1002C-3.31378 16.9432 -3.68481 16.6866 -4.12379 16.3402C-4.56137 15.9949 -5.15029 15.4947 -5.79226 14.8315C-6.43735 14.165 -7.20023 13.2681 -7.93202 12.12C-8.67464 10.955 -9.3741 9.54807 -9.87912 7.90556C-10.3885 6.24883 -10.6443 4.53205 -10.6443 2.81438H24.6335C24.6335 1.03116 24.3682 -0.74717 23.8409 -2.46217C23.3179 -4.16297 22.5922 -5.62493 21.8161 -6.84242C21.0509 -8.04293 20.2474 -8.98981 19.5557 -9.70438C18.8671 -10.4157 18.2257 -10.9623 17.7307 -11.3529C17.2344 -11.7445 16.8013 -12.0452 16.5002 -12.2461C16.1993 -12.4468 15.949 -12.6016 15.8173 -12.6822C15.7152 -12.7448 15.5622 -12.8367 15.6065 -12.8099C15.6066 -12.8099 15.612 -12.8067 15.6206 -12.8014C15.6293 -12.7961 15.6428 -12.7879 15.6599 -12.7774C15.6935 -12.7569 15.7463 -12.7242 15.8122 -12.6825C16.0483 -12.5332 16.6327 -12.1557 17.3334 -11.582C18.0497 -10.9954 19.0118 -10.1048 19.9664 -8.85824C20.9465 -7.57856 21.8554 -6.00508 22.4975 -4.14483C23.1405 -2.28209 23.4103 -0.436841 23.4103 1.27927H-11.8676ZM-10.6443 2.81438C-10.6443 -4.67475 -6.08825 -9.93179 -1.69151 -12.3531C1.80977 -14.2814 4.98727 -14.4509 6.3608 -14.454C8.03679 -14.4578 9.61913 -14.2019 11.0831 -13.7534C12.3044 -13.3792 14.8777 -12.4415 17.4296 -10.1111L-6.35911 15.9393C-3.62608 18.4351 -0.779841 19.5085 0.749038 19.9769C2.52056 20.5197 4.4451 20.8283 6.44066 20.8238C8.13376 20.8199 11.6082 20.5963 15.3265 18.5485C19.9403 16.0076 24.6335 10.5657 24.6335 2.81438H-10.6443ZM-11.9045 0.271299L-12.036 1.13896L22.8436 6.42462L22.9751 5.55696L-11.9045 0.271299ZM5.40378 3.78179C-3.12693 19.2207 -3.12205 19.2234 -3.11717 19.226C-3.11554 19.2269 -3.11064 19.2296 -3.10738 19.2314C-3.10084 19.235 -3.09428 19.2387 -3.0877 19.2423C-3.07455 19.2495 -3.06132 19.2567 -3.04802 19.264C-3.02141 19.2785 -2.9945 19.2931 -2.96728 19.3078C-2.91285 19.3372 -2.85717 19.3668 -2.80025 19.3967C-2.68645 19.4566 -2.56749 19.5176 -2.44345 19.5794C-2.1957 19.7028 -1.92577 19.8303 -1.63442 19.9587C-1.05468 20.214 -0.372574 20.4801 0.403909 20.7233C1.93921 21.2042 3.98294 21.6389 6.40206 21.6389V-13.6389C8.21781 -13.6389 9.76241 -13.3133 10.9494 -12.9415C11.5517 -12.7528 12.0974 -12.5413 12.5843 -12.3269C12.8292 -12.219 13.0635 -12.1085 13.2873 -11.997C13.3994 -11.9412 13.5093 -11.8849 13.617 -11.8283C13.6709 -11.7999 13.7242 -11.7715 13.7771 -11.743C13.8036 -11.7287 13.8299 -11.7144 13.8562 -11.7001C13.8693 -11.6929 13.8824 -11.6858 13.8954 -11.6786C13.9019 -11.675 13.9085 -11.6714 13.915 -11.6678C13.9182 -11.666 13.9231 -11.6634 13.9247 -11.6625C13.9296 -11.6598 13.9345 -11.6571 5.40378 3.78179ZM6.40206 21.6389C9.63716 21.6389 13.6767 20.7993 17.4255 18.204C21.8701 15.1271 25.555 9.66146 25.555 2.677H-9.72282C-9.72282 -3.33994 -6.49318 -8.14403 -2.65464 -10.8014C0.487978 -12.977 3.77051 -13.6389 6.40206 -13.6389V21.6389ZM25.555 2.677C25.555 0.705275 25.2454 -1.32459 24.5684 -3.32197C23.894 -5.31146 22.9457 -7.00287 21.9187 -8.39526C20.9118 -9.76042 19.8721 -10.7815 19.0294 -11.5065C18.1973 -12.2223 17.4593 -12.7322 17.0129 -13.0267C16.7833 -13.1781 16.5912 -13.2983 16.4772 -13.369C16.4155 -13.4072 16.2413 -13.5142 16.312 -13.4707C16.3161 -13.4682 16.3454 -13.4502 16.3873 -13.4239C16.4298 -13.3972 16.4977 -13.3543 16.5823 -13.2993C16.7403 -13.1966 17.0314 -13.0034 17.3885 -12.7383C17.7418 -12.476 18.2629 -12.0675 18.8532 -11.5147C19.4408 -10.9643 20.2126 -10.1637 20.9917 -9.09421C21.7814 -8.01022 22.6304 -6.57872 23.2778 -4.79374C23.9389 -2.97091 24.3208 -0.965189 24.3208 1.1419H-10.9571C-10.9571 3.30359 -10.5655 5.36123 -9.88638 7.23391C-9.22094 9.06874 -8.34539 10.548 -7.52194 11.6783C-6.70905 12.7942 -5.89635 13.6397 -5.2617 14.2341C-4.62444 14.8309 -4.05024 15.2826 -3.63914 15.5878C-3.22413 15.8958 -2.87033 16.1318 -2.64606 16.2776C-2.42299 16.4226 -2.23684 16.5372 -2.16725 16.58C-2.14655 16.5927 -2.12832 16.6039 -2.11614 16.6114C-2.09563 16.6239 -2.1024 16.6198 -2.09008 16.6273C-2.07856 16.6344 -2.08996 16.6274 -2.1095 16.6153C-2.14757 16.5917 -2.26253 16.5202 -2.41492 16.4197C-2.70705 16.2269 -3.29077 15.8278 -3.97823 15.2363C-4.67626 14.6358 -5.58106 13.7529 -6.47223 12.5447C-7.38348 11.3092 -8.2354 9.79331 -8.84227 8.00295C-9.4518 6.20471 -9.72282 4.39755 -9.72282 2.677H25.555ZM24.3208 1.14557C24.3193 8.11209 20.3243 13.3472 15.9575 15.9909C12.4871 18.0919 9.26347 18.3839 7.89336 18.441C5.26579 18.5503 1.90614 18.0453 -1.44638 15.9439L17.2898 -13.9473C13.5589 -16.2859 9.57931 -16.9376 6.42643 -16.8064C4.79367 -16.7384 1.33107 -16.3933 -2.31273 -14.1873C-6.85288 -11.4387 -10.9556 -6.04676 -10.9571 1.13823L24.3208 1.14557Z" fill="#231F20" mask="url(#path-1-inside-1_795_4558)"/>
</svg>
