<svg width="299" height="145" viewBox="0 0 299 145" fill="none" xmlns="http://www.w3.org/2000/svg">
<g clip-path="url(#clip0_672_1725)">
<path d="M87.7392 122.946L79.0408 113.898L79.4701 114.014L79.504 122.576H77.9902V110.693H78.0693L86.6773 119.765L86.3271 119.684L86.2933 111.04H87.7844V122.946H87.7392Z" fill="black"/>
<path d="M95.5005 118.492C95.5005 119.013 95.6248 119.476 95.862 119.892C96.1105 120.297 96.4268 120.621 96.8335 120.853C97.2402 121.084 97.692 121.2 98.2004 121.2C98.7313 121.2 99.2058 121.084 99.6238 120.853C100.042 120.621 100.369 120.297 100.607 119.892C100.844 119.487 100.968 119.013 100.968 118.492V111.041H102.448V118.539C102.448 119.372 102.256 120.112 101.883 120.737C101.499 121.362 100.991 121.848 100.358 122.195C99.7141 122.53 99.0024 122.704 98.2117 122.704C97.4209 122.704 96.7092 122.53 96.0766 122.195C95.444 121.859 94.9357 121.373 94.5629 120.737C94.1901 120.112 93.998 119.372 93.998 118.539V111.041H95.4892V118.492H95.5005Z" fill="black"/>
<path d="M114.455 113.1C114.071 112.903 113.653 112.718 113.19 112.579C112.738 112.429 112.286 112.359 111.846 112.359C111.247 112.359 110.761 112.51 110.411 112.788C110.049 113.077 109.869 113.459 109.869 113.933C109.869 114.292 109.982 114.604 110.208 114.847C110.434 115.102 110.739 115.31 111.111 115.495C111.484 115.68 111.88 115.842 112.286 116.004C112.636 116.143 112.987 116.293 113.326 116.467C113.664 116.64 113.981 116.849 114.252 117.103C114.523 117.358 114.749 117.67 114.907 118.04C115.065 118.411 115.144 118.874 115.144 119.429C115.144 120.031 114.997 120.586 114.704 121.084C114.41 121.581 113.981 121.974 113.438 122.264C112.885 122.553 112.23 122.692 111.473 122.692C110.976 122.692 110.501 122.634 110.049 122.518C109.598 122.403 109.18 122.252 108.796 122.067C108.411 121.882 108.073 121.685 107.768 121.488L108.434 120.274C108.683 120.459 108.965 120.621 109.293 120.794C109.609 120.956 109.948 121.095 110.298 121.199C110.648 121.303 110.998 121.35 111.326 121.35C111.676 121.35 112.026 121.28 112.377 121.153C112.727 121.014 113.009 120.817 113.246 120.54C113.472 120.262 113.585 119.892 113.585 119.441C113.585 119.047 113.484 118.723 113.28 118.457C113.077 118.202 112.806 117.971 112.478 117.786C112.151 117.601 111.789 117.427 111.416 117.288C111.066 117.15 110.705 116.999 110.343 116.837C109.982 116.675 109.643 116.467 109.338 116.236C109.022 115.993 108.773 115.703 108.592 115.345C108.411 114.997 108.31 114.569 108.31 114.072C108.31 113.47 108.457 112.938 108.739 112.487C109.021 112.035 109.417 111.677 109.914 111.422C110.411 111.156 110.987 111.017 111.631 110.994C112.354 110.994 112.998 111.087 113.551 111.26C114.105 111.445 114.602 111.665 115.02 111.931L114.455 113.1Z" fill="black"/>
<path d="M119.686 122.576L124.611 110.566H124.701L129.604 122.576H127.876L124.204 112.996L125.277 112.279L121.165 122.576H119.686ZM122.566 118.203H126.757L127.254 119.545H122.137L122.566 118.203Z" fill="black"/>
<path d="M144.583 122.946L135.885 113.898L136.326 114.014L136.348 122.576H134.846V110.693H134.913L143.533 119.765L143.171 119.684L143.137 111.04H144.629V122.946H144.583Z" fill="black"/>
<path d="M150.164 111.041H157.631V112.522H154.615V122.577H153.101V112.522H150.164V111.041Z" fill="black"/>
<path d="M161.156 122.576L166.082 110.566H166.172L171.075 122.576H169.346L165.675 112.996L166.748 112.279L162.636 122.576H161.156ZM164.037 118.203H168.228L168.725 119.545H163.608L164.037 118.203Z" fill="black"/>
<path d="M179.298 111.041C179.863 111.041 180.394 111.122 180.88 111.272C181.366 111.423 181.784 111.654 182.145 111.955C182.507 112.256 182.778 112.626 182.981 113.066C183.184 113.506 183.286 114.015 183.286 114.605C183.286 115.056 183.218 115.507 183.094 115.947C182.97 116.387 182.755 116.78 182.45 117.139C182.145 117.497 181.761 117.787 181.275 117.995C180.789 118.215 180.202 118.319 179.49 118.319H177.818V122.565H176.305V111.041H179.298ZM179.445 116.849C179.886 116.849 180.259 116.78 180.552 116.641C180.846 116.502 181.083 116.329 181.241 116.109C181.411 115.889 181.524 115.658 181.603 115.403C181.671 115.148 181.716 114.906 181.716 114.686C181.716 114.454 181.671 114.211 181.603 113.957C181.524 113.702 181.399 113.471 181.23 113.263C181.061 113.054 180.835 112.881 180.564 112.742C180.292 112.603 179.954 112.534 179.558 112.534H177.818V116.861H179.445V116.849ZM181.298 117.729L184.246 122.577H182.507L179.513 117.775L181.298 117.729Z" fill="black"/>
<path d="M188.562 122.576L193.488 110.566H193.578L198.481 122.576H196.753L193.081 112.996L194.154 112.279L190.042 122.576H188.562ZM191.443 118.203H195.634L196.131 119.545H191.014L191.443 118.203Z" fill="black"/>
<path d="M52.5394 33.7036C48.8228 27.1894 43.0841 26.0671 32.2281 26.0671H17.0228V55.0394H29.8219C35.2669 55.0394 41.1976 53.4658 42.813 48.9418H42.9938V62.0857H42.813C41.4122 58.1981 35.0635 57.2146 29.8219 57.2146H17.0228V81.8479C17.0228 85.3769 19.8131 88.2348 23.2585 88.2348H34.1824C44.5753 88.2348 51.6018 85.7124 54.7197 79.3603H55.115V90.41H0.123047V90.2249C4.57392 88.3274 5.40987 84.5207 5.40987 78.2495V36.0524C5.40987 29.7812 4.57392 25.9746 0.123047 24.077V23.8919H45.3209C46.9928 23.8919 50.3705 23.5679 52.8444 22.6191V33.7036H52.5394Z" fill="black"/>
<path d="M120.014 37.7764C115.846 29.9664 107.938 24.8292 97.9293 24.8292C82.9952 24.8292 75.6185 38.7136 75.6185 57.1452C75.6185 75.9587 85.4013 87.0778 98.0197 87.0778C108.695 87.0778 116.49 82.7042 121.121 71.2033L121.675 71.4C119.449 83.5604 110.164 91.3589 96.6189 91.3589C78.0021 91.3589 64.3105 79.1405 64.3105 57.1452C64.3105 36.0987 79.1091 22.9316 97.918 22.9316C105.34 22.9316 110.356 26.2523 113.225 26.2523C116.286 26.2523 118.794 24.3548 120.003 22.9316V37.7764H120.014Z" fill="black"/>
<path d="M138.314 36.053C138.314 30.2331 138.201 25.524 134.801 24.0777V23.8926H152.051V24.0777C148.65 25.524 148.345 30.2331 148.345 36.053V55.3409H179.197C181.908 55.3409 184.111 53.0846 184.111 50.3078V36.053C184.111 30.2331 183.806 25.524 180.405 24.0777V23.8926H197.655V24.0777C193.961 25.8827 194.142 32.3852 194.142 36.053V78.2502C194.142 84.3015 193.724 88.5479 197.655 90.2256V90.4107H180.405V90.2256C183.806 88.7793 184.111 84.0701 184.111 78.2502V57.5277H153.259C150.548 57.5277 148.345 59.7839 148.345 62.5608V78.2502C148.345 84.3015 148.131 88.5479 152.051 90.2256V90.4107H134.801V90.2256C138.201 88.7793 138.314 84.0701 138.314 78.2502V36.053Z" fill="black"/>
<path d="M241.566 91.3706C224.304 91.3706 209.449 77.5093 209.449 57.157C209.449 36.8047 224.304 22.9434 241.566 22.9434C258.827 22.9434 273.874 36.8047 273.874 57.157C273.874 77.4977 258.815 91.3706 241.566 91.3706ZM241.566 24.8293C226.993 24.8293 220.158 38.8989 220.158 57.1454C220.158 75.3919 226.993 89.4615 241.566 89.4615C256.138 89.4615 262.973 75.3919 262.973 57.1454C262.973 38.9105 256.127 24.8293 241.566 24.8293Z" fill="black"/>
<mask id="mask0_672_1725" style="mask-type:luminance" maskUnits="userSpaceOnUse" x="276" y="22" width="23" height="22">
<path d="M285.734 33.8895C285.452 41.4449 278.177 41.9887 278.177 41.9887C279.228 34.2597 285.734 33.8895 285.734 33.8895ZM289.474 33.8895C289.474 33.8895 295.981 34.2597 297.031 41.9887C297.042 42.0003 289.756 41.4449 289.474 33.8895ZM278.177 23.9505C278.177 23.9505 285.452 24.4943 285.734 32.0498C285.734 32.0498 279.228 31.6795 278.177 23.9505ZM297.042 23.9505C295.992 31.6795 289.485 32.0498 289.485 32.0498C289.756 24.4943 297.042 23.9505 297.042 23.9505ZM287.982 32.1192H287.237C287 21.8563 276.821 22.6778 276.821 22.6778C276.821 22.6778 276.29 30.4183 282.65 32.9754C276.29 35.5209 276.821 43.273 276.821 43.273C276.821 43.273 287 44.0945 287.237 33.8316H287.982C288.22 44.0945 298.398 43.273 298.398 43.273C298.398 43.273 298.929 35.5324 292.569 32.9754C298.94 30.4299 298.398 22.6778 298.398 22.6778C298.398 22.6778 298.206 22.6662 297.867 22.6662C295.777 22.6662 288.186 23.2678 287.982 32.1192Z" fill="white"/>
</mask>
<g mask="url(#mask0_672_1725)">
<path d="M289.745 10.459L309.593 35.0692L285.475 55.4793L265.627 30.8691L289.745 10.459Z" fill="url(#paint0_linear_672_1725)"/>
</g>
</g>
<defs>
<linearGradient id="paint0_linear_672_1725" x1="275.324" y1="17.7569" x2="311.068" y2="60.0029" gradientUnits="userSpaceOnUse">
<stop stop-color="#B69B7C"/>
<stop offset="0.9977" stop-color="#7D716A"/>
<stop offset="1" stop-color="#7D716A"/>
</linearGradient>
<clipPath id="clip0_672_1725">
<rect width="298.162" height="145" fill="white"/>
</clipPath>
</defs>
</svg>
