<svg width="10" height="6" viewBox="0 0 10 6" fill="none" xmlns="http://www.w3.org/2000/svg">
<g clip-path="url(#clip0_795_4549)">
<path d="M3.125 5.90448C4.85089 5.90448 6.25 4.58272 6.25 2.95224C6.25 1.32176 4.85089 0 3.125 0C1.39911 0 0 1.32176 0 2.95224C0 4.58272 1.39911 5.90448 3.125 5.90448Z" fill="#F93232"/>
<path d="M6.875 0C6.17312 0 5.5275 0.221418 5.00625 0.590448H5V0.594581C4.87625 0.682558 4.7625 0.781753 4.65406 0.885672H5.34594C5.44219 0.978077 5.53094 1.07698 5.61312 1.1809H4.38437C4.30875 1.27507 4.23937 1.37338 4.17594 1.47612H5.82094C5.87969 1.57177 5.935 1.6692 5.98281 1.77134H4.01687C3.97219 1.86729 3.93281 1.9656 3.89906 2.06657H6.10031C6.13281 2.16281 6.15844 2.26171 6.18094 2.36179H3.8175C3.79656 2.45862 3.77906 2.55664 3.76844 2.65702H6.23125C6.24344 2.75385 6.25 2.85216 6.25 2.95224H3.75C3.75 3.05232 3.75844 3.15004 3.76875 3.24746H6.23187C6.22 3.34754 6.20281 3.44585 6.18125 3.54269H3.81781C3.83937 3.64336 3.86719 3.74137 3.89937 3.83791H6.10062C6.06687 3.93888 6.0275 4.03719 5.98281 4.13313H4.01687C4.06406 4.23469 4.11719 4.3333 4.17594 4.42836H5.82094C5.75781 4.5311 5.6875 4.62941 5.61187 4.72358H4.38437C4.4675 4.8275 4.55719 4.9264 4.65375 5.01881H5.34594C5.23719 5.12302 5.12375 5.22192 5 5.3099C5.5225 5.68158 6.17031 5.90448 6.875 5.90448C8.60094 5.90448 10 4.58247 10 2.95224C10 1.32201 8.60094 0 6.875 0Z" fill="#FED049"/>
</g>
<defs>
<clipPath id="clip0_795_4549">
<rect width="10" height="5.90448" fill="white"/>
</clipPath>
</defs>
</svg>
