<svg width="7" height="8" viewBox="0 0 7 8" fill="none" xmlns="http://www.w3.org/2000/svg">
<path fill-rule="evenodd" clip-rule="evenodd" d="M5.21949 1.52913H7V5.71476C6.99842 6.32035 6.75969 6.90068 6.336 7.3289C5.91231 7.75712 5.33812 7.9984 4.73893 8H0V1.52913H1.78051C1.83424 1.10651 2.03847 0.71814 2.355 0.436693C2.67154 0.155246 3.07869 0 3.50028 0C3.92187 0 4.32902 0.155246 4.64556 0.436693C4.96209 0.71814 5.16633 1.10651 5.22005 1.52913H5.21949ZM2.22026 1.54332C2.41666 1.56019 2.61138 1.59323 2.80247 1.64209C3.04427 1.70395 3.2782 1.79379 3.49963 1.90982C3.72115 1.79395 3.95514 1.70424 4.19697 1.64247C4.38806 1.5936 4.58277 1.56057 4.77918 1.5437C4.7301 1.23647 4.57439 0.956929 4.33995 0.755166C4.1055 0.553403 3.80764 0.442597 3.49972 0.442597C3.1918 0.442597 2.89394 0.553403 2.65949 0.755166C2.42505 0.956929 2.26934 1.23647 2.22026 1.5437V1.54332Z" fill="#231F20"/>
<path fill-rule="evenodd" clip-rule="evenodd" d="M5.1124 1.77734H6.7308C6.73694 1.77739 6.74282 1.77988 6.74716 1.78427C6.7515 1.78866 6.75396 1.7946 6.75401 1.80081V5.71474C6.75401 6.83484 5.84737 7.75117 4.7393 7.75117H3.5V2.1936C3.93582 1.93703 4.48414 1.77734 5.1124 1.77734Z" fill="#4F9D4E"/>
<path fill-rule="evenodd" clip-rule="evenodd" d="M1.8877 1.77734H0.269307C0.263166 1.77739 0.25729 1.77988 0.252947 1.78427C0.248604 1.78866 0.246143 1.7946 0.246094 1.80081V7.75117H3.49992V2.1936C3.06429 1.93703 2.51596 1.77734 1.8877 1.77734Z" fill="#60BB55"/>
<path fill-rule="evenodd" clip-rule="evenodd" d="M6.02578 7.27989C5.66513 7.5852 5.20975 7.75263 4.7393 7.75291H3.5V5.59766C4.6193 5.60295 5.58304 6.29034 6.02578 7.27989Z" fill="#60BB55"/>
<path fill-rule="evenodd" clip-rule="evenodd" d="M0.78125 7.75215H3.49742V5.59766H3.48469C2.18923 5.59747 1.0995 6.51152 0.78125 7.75215Z" fill="#84C567"/>
<path fill-rule="evenodd" clip-rule="evenodd" d="M1.98184 2.57032C2.30618 2.57039 2.62328 2.66722 2.8934 2.84868C3.16351 3.03013 3.37462 3.28813 3.50027 3.59034C3.62683 3.28574 3.84024 3.02611 4.11332 2.84453C4.38639 2.66295 4.70677 2.56765 5.03363 2.57075C5.36049 2.57386 5.67903 2.67523 5.94868 2.86197C6.21833 3.0487 6.42688 3.31234 6.54775 3.61929C6.66862 3.92624 6.69635 4.26261 6.6274 4.58554C6.55845 4.90848 6.39594 5.20336 6.16058 5.43261C5.92522 5.66187 5.62766 5.81512 5.30581 5.87285C4.98397 5.93057 4.6524 5.89016 4.35337 5.75675L4.27305 5.83792L3.62289 6.49504L3.48754 6.63202L3.35163 6.49409L2.70146 5.83698L2.62901 5.76375C2.40419 5.86194 2.16054 5.90823 1.91578 5.89925C1.67103 5.89028 1.43134 5.82626 1.21415 5.71185C0.996964 5.59745 0.807747 5.43555 0.660272 5.23792C0.512797 5.0403 0.410775 4.81193 0.361631 4.56943C0.312487 4.32693 0.317458 4.07641 0.376183 3.8361C0.434907 3.59579 0.545907 3.37174 0.701103 3.18025C0.8563 2.98876 1.05179 2.83465 1.27334 2.72914C1.49489 2.62363 1.73693 2.56938 1.98184 2.57032ZM3.69328 5.22149C3.61579 5.11523 3.551 5.00009 3.50027 4.87846C3.45065 4.99793 3.38731 5.11109 3.31157 5.21562C3.43802 5.19312 3.56756 5.19511 3.69328 5.22149Z" fill="#231F20"/>
<path d="M5.0173 5.65047C5.79056 5.65047 6.41741 5.01691 6.41741 4.23539C6.41741 3.45386 5.79056 2.82031 5.0173 2.82031C4.24404 2.82031 3.61719 3.45386 3.61719 4.23539C3.61719 5.01691 4.24404 5.65047 5.0173 5.65047Z" fill="#FCFCFC"/>
<path d="M1.98605 5.65047C2.75931 5.65047 3.38616 5.01691 3.38616 4.23539C3.38616 3.45386 2.75931 2.82031 1.98605 2.82031C1.21279 2.82031 0.585938 3.45386 0.585938 4.23539C0.585938 5.01691 1.21279 5.65047 1.98605 5.65047Z" fill="#FCFCFC"/>
<path fill-rule="evenodd" clip-rule="evenodd" d="M2.1312 3.33789C2.32586 3.33797 2.51506 3.40294 2.66949 3.52272C2.82391 3.64251 2.93494 3.81042 2.98536 4.00044C3.03579 4.19047 3.0228 4.392 2.94841 4.57381C2.87402 4.75562 2.74237 4.90755 2.57388 5.00608C2.40538 5.1046 2.20944 5.14421 2.01642 5.11876C1.82339 5.09332 1.64405 5.00425 1.50619 4.86534C1.36834 4.72644 1.27965 4.54547 1.25388 4.35045C1.22811 4.15544 1.2667 3.95729 1.36366 3.78669C1.38451 3.84908 1.41902 3.90592 1.46461 3.95297C1.51021 4.00002 1.56571 4.03607 1.62699 4.05845C1.68828 4.08082 1.75377 4.08894 1.81858 4.0822C1.8834 4.07546 1.94588 4.05404 2.00138 4.01952C2.05687 3.98501 2.10395 3.93829 2.13911 3.88284C2.17427 3.8274 2.19661 3.76465 2.20446 3.69927C2.21231 3.6339 2.20548 3.56757 2.18447 3.50523C2.16345 3.44289 2.1288 3.38615 2.08309 3.33922C2.09919 3.33846 2.1151 3.33789 2.1312 3.33789Z" fill="#231F20"/>
<path fill-rule="evenodd" clip-rule="evenodd" d="M4.83417 3.33789C5.02873 3.33802 5.21782 3.40299 5.37214 3.52274C5.52646 3.64249 5.6374 3.81034 5.68778 4.00027C5.73816 4.1902 5.72516 4.39163 5.65079 4.57334C5.57643 4.75505 5.44485 4.9069 5.27644 5.00537C5.10803 5.10384 4.9122 5.14343 4.71927 5.11802C4.52634 5.0926 4.34709 5.00359 4.20929 4.86478C4.07148 4.72596 3.98282 4.54509 3.95702 4.35019C3.93123 4.15528 3.96976 3.95722 4.06662 3.78669C4.0874 3.84921 4.12186 3.90619 4.16746 3.95338C4.21305 4.00056 4.2686 4.03674 4.32995 4.0592C4.39131 4.08167 4.45689 4.08985 4.52181 4.08313C4.58672 4.07641 4.6493 4.05497 4.70488 4.0204C4.76046 3.98583 4.80759 3.93903 4.84278 3.88349C4.87797 3.82794 4.9003 3.76509 4.9081 3.69961C4.9159 3.63412 4.90898 3.56771 4.88785 3.50531C4.86672 3.44291 4.83192 3.38613 4.78606 3.33922C4.80197 3.33846 4.81807 3.33789 4.83417 3.33789Z" fill="#231F20"/>
<path fill-rule="evenodd" clip-rule="evenodd" d="M3.48828 5.39453C3.744 5.39453 3.97502 5.5126 4.13845 5.70199L3.48828 6.35911V5.39453Z" fill="#FFC868"/>
<path fill-rule="evenodd" clip-rule="evenodd" d="M3.48629 6.35911L2.83594 5.70199C2.99956 5.51279 3.23038 5.39453 3.48629 5.39453V6.35911Z" fill="#FCF5AE"/>
</svg>
