<svg width="9" height="7" viewBox="0 0 9 7" fill="none" xmlns="http://www.w3.org/2000/svg">
<g clip-path="url(#clip0_795_4544)">
<path d="M0.5625 0H8.4375C8.51139 -8.7858e-09 8.58456 0.0138484 8.65282 0.0407539C8.72109 0.0676595 8.78311 0.107095 8.83535 0.156807C8.88758 0.20652 8.92901 0.265535 8.95726 0.330481C8.98551 0.395428 9.00004 0.465032 9 0.535319V5.6183C9 5.76021 8.94074 5.8963 8.83525 5.99664C8.72976 6.09698 8.58668 6.15336 8.4375 6.15336H0.5625C0.413316 6.15336 0.270242 6.09698 0.164753 5.99664C0.0592633 5.8963 7.03189e-08 5.76021 7.03189e-08 5.6183V0.535319C-3.68758e-05 0.465032 0.0144854 0.395428 0.0427371 0.330481C0.0709888 0.265535 0.112416 0.20652 0.164653 0.156807C0.21689 0.107095 0.278912 0.0676595 0.347176 0.0407539C0.41544 0.0138484 0.488608 -8.7858e-09 0.5625 0Z" fill="#26A6D1"/>
<path d="M1.45125 2.14062L0.5625 4.01143H1.62647L1.75837 3.71314H2.05988L2.19178 4.01143H3.36291V3.78377L3.46725 4.01143H4.07306L4.17741 3.77895V4.01143H6.61303L6.90919 3.7209L7.1865 4.01143L8.4375 4.01384L7.54594 3.08124L8.4375 2.14062H7.20591L6.91763 2.42581L6.64903 2.14062H3.99938L3.77184 2.62351L3.53897 2.14062H2.47725V2.36053L2.35912 2.14062H1.45125ZM1.65712 2.40628H2.17575L2.76525 3.67488V2.40628H3.33337L3.78872 3.31586L4.20834 2.40628H4.77366V3.74872H4.42969L4.42687 2.69681L3.92541 3.74872H3.61772L3.11344 2.69681V3.74872H2.40581L2.27166 3.44775H1.54688L1.413 3.74845H1.03388L1.65712 2.40628ZM5.08837 2.40628H6.48703L6.91481 2.84582L7.35638 2.40628H7.78416L7.13419 3.08098L7.78416 3.74792H7.33697L6.90919 3.30329L6.46538 3.74792H5.08837V2.40628ZM1.90941 2.63341L1.67062 3.16953H2.14791L1.90941 2.63341ZM5.43375 2.68424V2.92929H6.19678V3.20243H5.43375V3.46996H6.28959L6.68728 3.07589L6.30647 2.68397L5.43375 2.68424Z" fill="#231F20"/>
</g>
<defs>
<clipPath id="clip0_795_4544">
<rect width="9" height="6.15309" fill="white"/>
</clipPath>
</defs>
</svg>
