<svg width="299" height="134" viewBox="0 0 299 134" fill="none" xmlns="http://www.w3.org/2000/svg">
<g clip-path="url(#clip0_594_1608)">
<path d="M87.948 113.505L79.2289 105.152L79.6592 105.259L79.6931 113.164H78.1758V102.193H78.255L86.8836 110.568L86.5326 110.493L86.4986 102.514H87.9933V113.505H87.948Z" fill="#FCFCFC"/>
<path d="M95.7287 109.393C95.7287 109.873 95.8533 110.301 96.0911 110.685C96.3402 111.059 96.6572 111.358 97.0649 111.572C97.4725 111.786 97.9255 111.892 98.435 111.892C98.9672 111.892 99.4428 111.786 99.8618 111.572C100.281 111.358 100.609 111.059 100.847 110.685C101.085 110.311 101.209 109.873 101.209 109.393V102.514H102.693V109.436C102.693 110.205 102.5 110.888 102.127 111.465C101.742 112.042 101.232 112.491 100.598 112.811C99.9524 113.121 99.239 113.281 98.4464 113.281C97.6537 113.281 96.9403 113.121 96.3062 112.811C95.6721 112.501 95.1625 112.053 94.7888 111.465C94.4152 110.888 94.2227 110.205 94.2227 109.436V102.514H95.7174V109.393H95.7287Z" fill="#FCFCFC"/>
<path d="M114.729 104.415C114.344 104.233 113.925 104.062 113.461 103.934C113.008 103.795 112.555 103.731 112.113 103.731C111.513 103.731 111.026 103.87 110.675 104.126C110.313 104.393 110.132 104.746 110.132 105.184C110.132 105.515 110.245 105.803 110.471 106.028C110.698 106.263 111.003 106.455 111.377 106.626C111.751 106.797 112.147 106.946 112.555 107.096C112.906 107.224 113.257 107.363 113.597 107.523C113.936 107.683 114.253 107.876 114.525 108.111C114.797 108.346 115.023 108.634 115.182 108.976C115.34 109.318 115.42 109.745 115.42 110.258C115.42 110.813 115.272 111.326 114.978 111.785C114.684 112.245 114.253 112.608 113.71 112.875C113.155 113.142 112.498 113.27 111.74 113.27C111.241 113.27 110.766 113.217 110.313 113.11C109.86 113.003 109.441 112.864 109.056 112.693C108.671 112.522 108.331 112.341 108.025 112.159L108.693 111.038C108.943 111.208 109.226 111.358 109.554 111.518C109.871 111.668 110.211 111.796 110.562 111.892C110.913 111.988 111.264 112.031 111.592 112.031C111.943 112.031 112.294 111.967 112.645 111.849C112.996 111.721 113.28 111.54 113.517 111.283C113.744 111.027 113.857 110.685 113.857 110.268C113.857 109.905 113.755 109.606 113.551 109.36C113.347 109.125 113.076 108.912 112.747 108.741C112.419 108.57 112.057 108.41 111.683 108.282C111.332 108.153 110.97 108.015 110.607 107.865C110.245 107.715 109.905 107.523 109.599 107.31C109.282 107.085 109.033 106.818 108.852 106.487C108.671 106.167 108.569 105.771 108.569 105.312C108.569 104.757 108.716 104.265 108.999 103.849C109.282 103.432 109.679 103.101 110.177 102.866C110.675 102.62 111.253 102.492 111.898 102.471C112.623 102.471 113.268 102.556 113.823 102.716C114.378 102.887 114.876 103.09 115.295 103.336L114.729 104.415Z" fill="#FCFCFC"/>
<path d="M119.973 113.164L124.91 102.076H125L129.915 113.164H128.182L124.502 104.319L125.578 103.657L121.456 113.164H119.973ZM122.86 109.126H127.061L127.559 110.365H122.43L122.86 109.126Z" fill="#FCFCFC"/>
<path d="M144.929 113.505L136.21 105.152L136.651 105.259L136.674 113.164H135.168V102.193H135.236L143.876 110.568L143.513 110.493L143.479 102.514H144.974V113.505H144.929Z" fill="#FCFCFC"/>
<path d="M150.523 102.514H158.008V103.881H154.985V113.163H153.468V103.881H150.523V102.514Z" fill="#FCFCFC"/>
<path d="M161.541 113.164L166.478 102.076H166.569L171.483 113.164H169.751L166.07 104.319L167.146 103.657L163.024 113.164H161.541ZM164.429 109.126H168.63L169.128 110.365H163.998L164.429 109.126Z" fill="#FCFCFC"/>
<path d="M179.727 102.514C180.293 102.514 180.826 102.588 181.313 102.727C181.8 102.866 182.219 103.08 182.581 103.358C182.943 103.635 183.215 103.977 183.419 104.383C183.623 104.789 183.725 105.259 183.725 105.804C183.725 106.22 183.657 106.637 183.532 107.043C183.407 107.449 183.192 107.812 182.887 108.143C182.581 108.474 182.196 108.741 181.709 108.933C181.222 109.136 180.633 109.233 179.92 109.233H178.244V113.153H176.727V102.514H179.727ZM179.875 107.876C180.316 107.876 180.69 107.812 180.984 107.684C181.279 107.556 181.516 107.395 181.675 107.192C181.845 106.989 181.958 106.776 182.037 106.541C182.105 106.306 182.151 106.081 182.151 105.878C182.151 105.665 182.105 105.44 182.037 105.205C181.958 104.97 181.834 104.757 181.664 104.565C181.494 104.372 181.267 104.212 180.996 104.084C180.724 103.956 180.384 103.892 179.988 103.892H178.244V107.887H179.875V107.876ZM181.732 108.688L184.687 113.163H182.943L179.942 108.731L181.732 108.688Z" fill="#FCFCFC"/>
<path d="M189.012 113.164L193.949 102.076H194.039L198.954 113.164H197.221L193.541 104.319L194.617 103.657L190.495 113.164H189.012ZM191.899 109.126H196.1L196.599 110.365H191.469L191.899 109.126Z" fill="#FCFCFC"/>
<path d="M52.6646 31.116C48.9391 25.1021 43.1867 24.066 32.3047 24.066H17.0632V50.8134H29.8928C35.3508 50.8134 41.2957 49.3606 42.915 45.184H43.0961V57.3186H42.915C41.5108 53.7295 35.147 52.8215 29.8928 52.8215H17.0632V75.5632C17.0632 78.8212 19.8601 81.4596 23.3138 81.4596H34.2637C44.6814 81.4596 51.7247 79.1309 54.85 73.2666H55.2464V83.4678H0.123047V83.2969C4.58455 81.545 5.42249 78.0307 5.42249 72.2411V33.2844C5.42249 27.4949 4.58455 23.9805 0.123047 22.2287V22.0578H45.4288C47.1047 22.0578 50.4904 21.7587 52.9703 20.8828V31.116H52.6646Z" fill="#FCFCFC"/>
<path d="M120.3 34.8767C116.121 27.6664 108.195 22.9237 98.1619 22.9237C83.1921 22.9237 75.7978 35.7419 75.7978 52.7581C75.7978 70.1268 85.6041 80.392 98.2525 80.392C108.953 80.392 116.767 76.3543 121.409 65.7365L121.964 65.9181C119.733 77.1447 110.425 84.3443 96.8484 84.3443C78.1871 84.3443 64.4629 73.0643 64.4629 52.7581C64.4629 33.3278 79.2968 21.1719 98.1506 21.1719C105.59 21.1719 110.618 24.2376 113.494 24.2376C116.563 24.2376 119.077 22.4857 120.288 21.1719V34.8767H120.3Z" fill="#FCFCFC"/>
<path d="M138.645 33.2852C138.645 27.9122 138.531 23.5647 135.123 22.2295V22.0586H152.414V22.2295C149.006 23.5647 148.7 27.9122 148.7 33.2852V51.0919H179.625C182.342 51.0919 184.551 49.0089 184.551 46.4453V33.2852C184.551 27.9122 184.245 23.5647 180.836 22.2295V22.0586H198.128V22.2295C194.425 23.8959 194.606 29.8991 194.606 33.2852V72.2419C194.606 77.8285 194.187 81.7488 198.128 83.2976V83.4685H180.836V83.2976C184.245 81.9624 184.551 77.6149 184.551 72.2419V53.1107H153.626C150.908 53.1107 148.7 55.1937 148.7 57.7573V72.2419C148.7 77.8285 148.485 81.7488 152.414 83.2976V83.4685H135.123V83.2976C138.531 81.9624 138.645 77.6149 138.645 72.2419V33.2852Z" fill="#FCFCFC"/>
<path d="M242.142 84.3541C224.84 84.3541 209.949 71.5572 209.949 52.7679C209.949 33.9785 224.84 21.1816 242.142 21.1816C259.445 21.1816 274.528 33.9785 274.528 52.7679C274.528 71.5465 259.433 84.3541 242.142 84.3541ZM242.142 22.9228C227.535 22.9228 220.684 35.9119 220.684 52.7572C220.684 69.6024 227.535 82.5916 242.142 82.5916C256.75 82.5916 263.6 69.6024 263.6 52.7572C263.6 35.9226 256.738 22.9228 242.142 22.9228Z" fill="#FCFCFC"/>
<mask id="mask0_594_1608" style="mask-type:luminance" maskUnits="userSpaceOnUse" x="277" y="20" width="23" height="20">
<path d="M286.418 31.287C286.135 38.2623 278.842 38.7643 278.842 38.7643C279.895 31.6288 286.418 31.287 286.418 31.287ZM290.166 31.287C290.166 31.287 296.688 31.6288 297.741 38.7643C297.753 38.775 290.449 38.2623 290.166 31.287ZM278.842 22.1113C278.842 22.1113 286.135 22.6134 286.418 29.5886C286.418 29.5886 279.895 29.2468 278.842 22.1113ZM297.753 22.1113C296.7 29.2468 290.177 29.5886 290.177 29.5886C290.449 22.6134 297.753 22.1113 297.753 22.1113ZM288.671 29.6527H287.924C287.686 20.1779 277.484 20.9363 277.484 20.9363C277.484 20.9363 276.951 28.0825 283.327 30.4432C276.951 32.7932 277.484 39.95 277.484 39.95C277.484 39.95 287.686 40.7084 287.924 31.2336H288.671C288.909 40.7084 299.112 39.95 299.112 39.95C299.112 39.95 299.644 32.8039 293.269 30.4432C299.655 28.0932 299.112 20.9363 299.112 20.9363C299.112 20.9363 298.919 20.9256 298.579 20.9256C296.485 20.9256 288.875 21.4811 288.671 29.6527Z" fill="white"/>
</mask>
<g mask="url(#mask0_594_1608)">
<path d="M290.438 9.65625L310.333 32.3765L286.157 51.2193L266.262 28.499L290.438 9.65625Z" fill="url(#paint0_linear_594_1608)"/>
</g>
</g>
<defs>
<linearGradient id="paint0_linear_594_1608" x1="275.982" y1="16.3937" x2="308.429" y2="58.0317" gradientUnits="userSpaceOnUse">
<stop stop-color="#B69B7C"/>
<stop offset="0.9977" stop-color="#7D716A"/>
<stop offset="1" stop-color="#7D716A"/>
</linearGradient>
<clipPath id="clip0_594_1608">
<rect width="298.874" height="133.865" fill="white"/>
</clipPath>
</defs>
</svg>
