<svg width="128" height="45" viewBox="0 0 128 45" fill="none" xmlns="http://www.w3.org/2000/svg">
<path d="M37.5975 44.14L33.8649 40.1714L34.0491 40.2221L34.0636 43.9776H33.4141V38.7656H33.448L37.1418 42.7444L36.9915 42.7089L36.977 38.9179H37.6169V44.14H37.5975Z" fill="#231F20"/>
<path d="M40.926 42.1901C40.926 42.4185 40.9793 42.6215 41.0811 42.8042C41.1877 42.9818 41.3235 43.1239 41.498 43.2254C41.6725 43.3269 41.8664 43.3777 42.0845 43.3777C42.3124 43.3777 42.516 43.3269 42.6953 43.2254C42.8747 43.1239 43.0153 42.9818 43.1171 42.8042C43.2188 42.6266 43.2722 42.4185 43.2722 42.1901V38.9219H43.9072V42.2104C43.9072 42.5758 43.8248 42.9006 43.6648 43.1747C43.5 43.4487 43.2819 43.6619 43.0104 43.8141C42.7341 43.9613 42.4287 44.0374 42.0894 44.0374C41.75 44.0374 41.4447 43.9613 41.1732 43.8141C40.9017 43.6669 40.6836 43.4538 40.5236 43.1747C40.3637 42.9006 40.2812 42.5758 40.2812 42.2104V38.9219H40.9211V42.1901H40.926Z" fill="#231F20"/>
<path d="M49.0611 39.8221C48.8963 39.7358 48.717 39.6546 48.5182 39.5937C48.3243 39.5277 48.1304 39.4973 47.9414 39.4973C47.6844 39.4973 47.476 39.5633 47.3257 39.6851C47.1706 39.8119 47.093 39.9794 47.093 40.1875C47.093 40.3448 47.1415 40.4818 47.2385 40.5884C47.3354 40.7 47.4663 40.7914 47.6263 40.8726C47.7862 40.9538 47.9559 41.0248 48.1304 41.0959C48.2807 41.1568 48.431 41.2228 48.5764 41.2989C48.7218 41.375 48.8575 41.4664 48.9739 41.578C49.0902 41.6897 49.1872 41.8267 49.255 41.9891C49.3229 42.1515 49.3568 42.3545 49.3568 42.5981C49.3568 42.862 49.2938 43.1056 49.1678 43.3238C49.0417 43.542 48.8575 43.7146 48.6249 43.8414C48.3873 43.9683 48.1062 44.0292 47.7814 44.0292C47.5681 44.0292 47.3645 44.0038 47.1706 43.9531C46.9767 43.9023 46.7973 43.8364 46.6325 43.7552C46.4677 43.674 46.3223 43.5877 46.1914 43.5014L46.4774 42.9685C46.5841 43.0497 46.7052 43.1208 46.8458 43.1969C46.9816 43.268 47.127 43.3289 47.2773 43.3745C47.4275 43.4202 47.5778 43.4405 47.7184 43.4405C47.8686 43.4405 48.0189 43.4101 48.1692 43.3542C48.3195 43.2933 48.4407 43.2071 48.5425 43.0853C48.6394 42.9635 48.6879 42.8011 48.6879 42.6031C48.6879 42.4306 48.6443 42.2885 48.557 42.1718C48.4697 42.0601 48.3534 41.9586 48.2128 41.8774C48.0722 41.7962 47.9171 41.7201 47.7572 41.6592C47.6069 41.5983 47.4518 41.5323 47.2966 41.4613C47.1415 41.3902 46.9961 41.2989 46.8652 41.1974C46.7295 41.0908 46.6228 40.9639 46.5453 40.8066C46.4677 40.6544 46.4241 40.4666 46.4241 40.2484C46.4241 39.9845 46.4871 39.751 46.6083 39.5531C46.7295 39.3552 46.8991 39.1979 47.1124 39.0862C47.3257 38.9695 47.5729 38.9086 47.8493 38.8984C48.1595 38.8984 48.4358 38.939 48.6733 39.0152C48.9109 39.0964 49.1242 39.1928 49.3035 39.3095L49.0611 39.8221Z" fill="#231F20"/>
<path d="M51.3047 43.9787L53.4182 38.7109H53.457L55.5608 43.9787H54.8191L53.2437 39.7767L53.7042 39.462L51.9397 43.9787H51.3047ZM52.5408 42.0604H54.3392L54.5525 42.6491H52.3566L52.5408 42.0604Z" fill="#231F20"/>
<path d="M61.9911 44.14L58.2585 40.1714L58.4475 40.2221L58.4572 43.9776H57.8125V38.7656H57.8416L61.5402 42.7444L61.3851 42.7089L61.3706 38.9179H62.0104V44.14H61.9911Z" fill="#231F20"/>
<path d="M64.3828 38.9219H67.587V39.5715H66.2927V43.9816H65.6432V39.5715H64.3828V38.9219Z" fill="#231F20"/>
<path d="M69.1016 43.9787L71.2151 38.7109H71.2539L73.3577 43.9787H72.616L71.0406 39.7767L71.5011 39.462L69.7366 43.9787H69.1016ZM70.3377 42.0604H72.1361L72.3494 42.6491H70.1535L70.3377 42.0604Z" fill="#231F20"/>
<path d="M76.8862 38.9219C77.1285 38.9219 77.3564 38.9574 77.5648 39.0234C77.7733 39.0893 77.9526 39.1908 78.1077 39.3228C78.2629 39.4547 78.3792 39.6171 78.4665 39.81C78.5537 40.0028 78.5973 40.2261 78.5973 40.485C78.5973 40.6829 78.5682 40.8808 78.5149 41.0736C78.4616 41.2665 78.3695 41.439 78.2386 41.5964C78.1077 41.7537 77.9429 41.8806 77.7345 41.9719C77.526 42.0683 77.274 42.114 76.9686 42.114H76.2511V43.9765H75.6016V38.9219H76.8862ZM76.9492 41.4695C77.1382 41.4695 77.2982 41.439 77.4242 41.3781C77.5503 41.3172 77.6521 41.2411 77.7199 41.1447C77.7926 41.0483 77.8411 40.9468 77.8751 40.8351C77.9041 40.7235 77.9235 40.6169 77.9235 40.5205C77.9235 40.419 77.9041 40.3124 77.8751 40.2008C77.8411 40.0891 77.7878 39.9876 77.7151 39.8963C77.6424 39.8049 77.5454 39.7288 77.4291 39.6679C77.3127 39.607 77.1673 39.5765 76.9977 39.5765H76.2511V41.4746H76.9492V41.4695ZM77.7442 41.8552L79.0094 43.9816H78.2629L76.9783 41.8755L77.7442 41.8552Z" fill="#231F20"/>
<path d="M80.8594 43.9787L82.9729 38.7109H83.0117L85.1155 43.9787H84.3738L82.7984 39.7767L83.2589 39.462L81.4944 43.9787H80.8594ZM82.0955 42.0604H83.8939L84.1072 42.6491H81.9113L82.0955 42.0604Z" fill="#231F20"/>
<path d="M22.4925 5.00046C20.8977 2.14327 18.4351 1.651 13.7767 1.651H7.25189V14.3587H12.7441C15.0806 14.3587 17.6256 13.6685 18.3188 11.6842H18.3963V17.4493H18.3188C17.7177 15.7441 14.9934 15.3127 12.7441 15.3127H7.25189V26.1173C7.25189 27.6651 8.44923 28.9187 9.92773 28.9187H14.6153C19.075 28.9187 22.0902 27.8123 23.4281 25.0262H23.5977V29.8727H0V29.7915C1.90992 28.9593 2.26864 27.2896 2.26864 24.539V6.03068C2.26864 3.28006 1.90992 1.6104 0 0.778114V0.696915H19.3949C20.1124 0.696915 21.5618 0.554817 22.6234 0.138672V5.00046H22.4925Z" fill="#231F20"/>
<path d="M51.4461 6.78654C49.6574 3.36095 46.2641 1.10768 41.9692 1.10768C35.5608 1.10768 32.3953 7.19761 32.3953 15.282C32.3953 23.5338 36.5933 28.4108 42.008 28.4108C46.5889 28.4108 49.9337 26.4925 51.9212 21.448L52.1587 21.5343C51.2037 26.8681 47.2191 30.2886 41.4069 30.2886C33.4182 30.2886 27.543 24.9294 27.543 15.282C27.543 6.05067 33.8932 0.275391 41.9643 0.275391C45.1492 0.275391 47.3015 1.7319 48.5327 1.7319C49.8464 1.7319 50.9226 0.899608 51.4413 0.275391V6.78654H51.4461Z" fill="#231F20"/>
<path d="M59.5076 6.33376C59.5076 3.78107 59.4591 1.71557 58 1.0812V1H65.4022V1.0812C63.9431 1.71557 63.8122 3.78107 63.8122 6.33376V14.7937H77.0508C78.2142 14.7937 79.1594 13.8041 79.1594 12.5861V6.33376C79.1594 3.78107 79.0286 1.71557 77.5695 1.0812V1H84.9716V1.0812C83.3865 1.87289 83.464 4.725 83.464 6.33376V24.8421C83.464 27.4963 83.2847 29.3588 84.9716 30.0946V30.1758H77.5695V30.0946C79.0286 29.4603 79.1594 27.3948 79.1594 24.8421V15.7528H65.9208C64.7574 15.7528 63.8122 16.7425 63.8122 17.9604V24.8421C63.8122 27.4963 63.7201 29.3588 65.4022 30.0946V30.1758H58V30.0946C59.4591 29.4603 59.5076 27.3948 59.5076 24.8421V6.33376Z" fill="#231F20"/>
<path d="M103.602 30.2964C96.1948 30.2964 89.8203 24.2166 89.8203 15.2898C89.8203 6.36298 96.1948 0.283203 103.602 0.283203C111.009 0.283203 117.466 6.36298 117.466 15.2898C117.466 24.2115 111.004 30.2964 103.602 30.2964ZM103.602 1.11042C97.3485 1.11042 94.4158 7.28154 94.4158 15.2847C94.4158 23.2879 97.3485 29.459 103.602 29.459C109.855 29.459 112.788 23.2879 112.788 15.2847C112.788 7.28662 109.85 1.11042 103.602 1.11042Z" fill="#231F20"/>
<mask id="mask0_795_4350" style="mask-type:luminance" maskUnits="userSpaceOnUse" x="118" y="0" width="10" height="10">
<path d="M122.56 5.08268C122.439 8.39662 119.317 8.63514 119.317 8.63514C119.768 5.24508 122.56 5.08268 122.56 5.08268ZM124.164 5.08268C124.164 5.08268 126.957 5.24508 127.407 8.63514C127.412 8.64021 124.286 8.39662 124.164 5.08268ZM119.317 0.723308C119.317 0.723308 122.439 0.961831 122.56 4.27577C122.56 4.27577 119.768 4.11337 119.317 0.723308ZM127.412 0.723308C126.961 4.11337 124.169 4.27577 124.169 4.27577C124.286 0.961831 127.412 0.723308 127.412 0.723308ZM123.524 4.30622H123.205C123.103 -0.195256 118.735 0.165065 118.735 0.165065C118.735 0.165065 118.507 3.5602 121.236 4.68176C118.507 5.79825 118.735 9.19846 118.735 9.19846C118.735 9.19846 123.103 9.55878 123.205 5.05731H123.524C123.626 9.55878 127.994 9.19846 127.994 9.19846C127.994 9.19846 128.222 5.80332 125.493 4.68176C128.227 3.56527 127.994 0.165065 127.994 0.165065C127.994 0.165065 127.911 0.15999 127.766 0.15999C126.869 0.15999 123.612 0.423887 123.524 4.30622Z" fill="white"/>
</mask>
<g mask="url(#mask0_795_4350)">
<path d="M124.283 -5.19336L132.8 5.60103L122.451 14.5532L113.934 3.75883L124.283 -5.19336Z" fill="url(#paint0_linear_795_4350)"/>
</g>
<defs>
<linearGradient id="paint0_linear_795_4350" x1="118.095" y1="-1.99241" x2="133.826" y2="16.1975" gradientUnits="userSpaceOnUse">
<stop stop-color="#B69B7C"/>
<stop offset="0.9977" stop-color="#7D716A"/>
<stop offset="1" stop-color="#7D716A"/>
</linearGradient>
</defs>
</svg>
