<svg width="46" height="51" viewBox="0 0 46 51" fill="none" xmlns="http://www.w3.org/2000/svg">
<path d="M17.9961 0.375C8.18294 0.375 0.208984 9.02691 0.208984 19.6744C0.208984 30.3219 8.18294 38.9738 17.9961 38.9738C21.8788 38.9738 25.4673 37.6168 28.3937 35.3197L42.1591 50.2199L45.1018 47.027L31.4999 32.2332C34.1729 28.854 35.7832 24.4682 35.7832 19.6744C35.7832 9.02691 27.8092 0.375 17.9961 0.375ZM17.9961 2.64552C26.6771 2.64552 33.6906 10.2553 33.6906 19.6744C33.6906 29.0935 26.6771 36.7032 17.9961 36.7032C9.31507 36.7032 2.30158 29.0935 2.30158 19.6744C2.30158 10.2553 9.31507 2.64552 17.9961 2.64552Z" fill="black"/>
</svg>
